<svg width="400" height="60" viewBox="0 0 400 60" fill="none" xmlns="http://www.w3.org/2000/svg">
<g clip-path="url(#clip0_19_184)">
<rect x="-2" width="402" height="60" rx="15" fill="#0F4F21"/>
<path d="M72.84 53C71.72 53 71.16 52.44 71.16 51.32V26.4C71.16 25.28 71.72 24.72 72.84 24.72C73.96 24.72 74.52 25.28 74.52 26.4V26.9C75.24 26.18 76.1267 25.64 77.18 25.28C78.2467 24.9067 79.44 24.72 80.76 24.72H82.28C84.9467 24.72 86.92 25.36 88.2 26.64C89.48 27.92 90.12 29.8933 90.12 32.56V37.16C90.12 39.8133 89.48 41.7867 88.2 43.08C86.92 44.36 84.9467 45 82.28 45H74.52V51.32C74.52 52.44 73.96 53 72.84 53ZM74.52 41.64H82.28C84.0267 41.64 85.2067 41.3267 85.82 40.7C86.4467 40.0733 86.76 38.8933 86.76 37.16V32.56C86.76 30.8133 86.4467 29.6333 85.82 29.02C85.2067 28.3933 84.0267 28.08 82.28 28.08H80.76C79.0933 28.08 77.6533 28.28 76.44 28.68C75.2267 29.08 74.5867 29.7133 74.52 30.58V41.64ZM103.888 36.24V37.2C103.888 38.92 104.201 40.0933 104.828 40.72C105.455 41.3333 106.635 41.64 108.368 41.64H111.648C113.008 41.64 114.015 41.5133 114.668 41.26C115.321 41.0067 115.755 40.56 115.968 39.92C116.115 39.4133 116.315 39.0267 116.568 38.76C116.835 38.4933 117.235 38.36 117.768 38.36C118.328 38.36 118.755 38.5067 119.048 38.8C119.341 39.0933 119.435 39.52 119.328 40.08C119.035 41.7333 118.248 42.9667 116.968 43.78C115.688 44.5933 113.915 45 111.648 45H108.368C105.715 45 103.741 44.36 102.448 43.08C101.168 41.8 100.528 39.84 100.528 37.2V32.56C100.528 29.8533 101.168 27.8667 102.448 26.6C103.741 25.32 105.715 24.6933 108.368 24.72H111.648C114.315 24.72 116.288 25.36 117.568 26.64C118.848 27.9067 119.488 29.88 119.488 32.56V34.56C119.488 35.68 118.928 36.24 117.808 36.24H103.888ZM108.368 28.08C106.635 28.0533 105.455 28.3533 104.828 28.98C104.201 29.6067 103.888 30.8 103.888 32.56V32.88H116.128V32.56C116.128 30.8133 115.815 29.6333 115.188 29.02C114.575 28.3933 113.395 28.08 111.648 28.08H108.368ZM132.52 45C131.4 45 130.84 44.44 130.84 43.32V26.4C130.84 25.28 131.4 24.72 132.52 24.72C133.64 24.72 134.2 25.28 134.2 26.4V27.06C135.613 25.5 137.693 24.72 140.44 24.72H141.56C144.226 24.72 146.2 25.36 147.48 26.64C148.76 27.92 149.4 29.8933 149.4 32.56V43.32C149.4 44.44 148.84 45 147.72 45C146.6 45 146.04 44.44 146.04 43.32V32.56C146.04 30.8133 145.72 29.6333 145.08 29.02C144.453 28.3933 143.28 28.08 141.56 28.08H140.44C138.84 28.08 137.446 28.2667 136.26 28.64C135.073 29 134.386 29.5733 134.2 30.36V43.32C134.2 44.44 133.64 45 132.52 45ZM163.004 45C161.884 45 161.324 44.44 161.324 43.32V19.56C161.324 18.44 161.884 17.88 163.004 17.88H177.724C178.244 17.88 178.651 18.0333 178.944 18.34C179.251 18.6333 179.404 19.04 179.404 19.56C179.404 20.68 178.844 21.24 177.724 21.24H164.684V29.64H172.724C173.844 29.64 174.404 30.2 174.404 31.32C174.404 32.44 173.844 33 172.724 33H164.684V43.32C164.684 44.44 164.124 45 163.004 45ZM202.038 24.72C203.158 24.72 203.718 25.28 203.718 26.4V43.32C203.718 44.44 203.158 45 202.038 45C200.918 45 200.358 44.44 200.358 43.32V42.66C198.945 44.22 196.865 45 194.118 45H192.998C190.345 45 188.372 44.36 187.078 43.08C185.798 41.7867 185.158 39.8133 185.158 37.16V26.4C185.158 25.28 185.718 24.72 186.838 24.72C187.958 24.72 188.518 25.28 188.518 26.4V37.16C188.518 38.8933 188.832 40.0733 189.458 40.7C190.098 41.3267 191.278 41.64 192.998 41.64H194.118C195.718 41.64 197.112 41.4533 198.298 41.08C199.498 40.7067 200.185 40.1333 200.358 39.36V26.4C200.358 25.28 200.918 24.72 202.038 24.72ZM217.723 45C216.603 45 216.043 44.44 216.043 43.32V26.4C216.043 25.28 216.603 24.72 217.723 24.72C218.843 24.72 219.403 25.28 219.403 26.4V27.96C220.189 26.8933 221.189 26.0867 222.403 25.54C223.629 24.9933 225.029 24.72 226.603 24.72C227.723 24.72 228.283 25.28 228.283 26.4C228.283 27.52 227.723 28.08 226.603 28.08C224.296 28.08 222.536 28.5067 221.323 29.36C220.109 30.2133 219.469 31.34 219.403 32.74V43.32C219.403 44.44 218.843 45 217.723 45ZM238.793 45C237.673 45 237.113 44.44 237.113 43.32V26.4C237.113 25.28 237.673 24.72 238.793 24.72C239.913 24.72 240.473 25.28 240.473 26.4V27.06C241.886 25.5 243.966 24.72 246.713 24.72H247.833C250.5 24.72 252.473 25.36 253.753 26.64C255.033 27.92 255.673 29.8933 255.673 32.56V43.32C255.673 44.44 255.113 45 253.993 45C252.873 45 252.313 44.44 252.313 43.32V32.56C252.313 30.8133 251.993 29.6333 251.353 29.02C250.726 28.3933 249.553 28.08 247.833 28.08H246.713C245.113 28.08 243.72 28.2667 242.533 28.64C241.346 29 240.66 29.5733 240.473 30.36V43.32C240.473 44.44 239.913 45 238.793 45Z" fill="white" fill-opacity="0.9"/>
<rect x="-2" y="1" width="58" height="58" rx="18" stroke="white" stroke-opacity="0.9" stroke-width="4"/>
</g>
<defs>
<clipPath id="clip0_19_184">
<rect x="-2" width="402" height="60" rx="15" fill="white"/>
</clipPath>
</defs>
</svg>
